# xmcd CD database file
#
# Track frame offsets:
#	150
#	25610
#	46875
#	68810
#	89640
#	108435
#	134777
#	159230
#	184325
#	206692
#	227325
#	246800
#
# Disc length: 3590 seconds
#
# Revision: 0
# Processed by: cddbd v1.5.1PL2 Copyright (c) Steve Scherf et al.
# Submitted via: CDex 1.51
#
DISCID=a00e040c
DTITLE=岡村孝子 - liaison 1 panorama
DYEAR=1997
DGENRE=J-Pop
TTITLE0=天使たちの時
TTITLE1=夢をあきらめないで
TTITLE2=ジュ・テーム
TTITLE3=卒業
TTITLE4=Dear Friend
TTITLE5=フォーエバー・ロマンス
TTITLE6=白い世界
TTITLE7=永遠の灯
TTITLE8=砕ける波に・・・
TTITLE9=ソレイユ
TTITLE10=星空はいつも
TTITLE11=ハレルヤ
EXTD=YEAR: 1997
EXTT0=
EXTT1=
EXTT2=
EXTT3=
EXTT4=
EXTT5=
EXTT6=
EXTT7=
EXTT8=
EXTT9=
EXTT10=
EXTT11=
PLAYORDER=
